<?xml version="1.0" ?>
<!-- Uploaded to: SVG Repo, www.svgrepo.com, Generator: SVG Repo Mixer Tools -->
<svg width="800px" height="800px" viewBox="0 0 512 512" id="Layer_1" version="1.1" xml:space="preserve" xmlns="http://www.w3.org/2000/svg" xmlns:xlink="http://www.w3.org/1999/xlink">
<style type="text/css">
	.st0{fill:#D8D8D8;}
	.st1{fill:#49A8FF;}
	.st2{fill:#FDCEB6;}
	.st3{fill:#FFFFFF;}
	.st4{fill:none;stroke:#34374F;stroke-width:12;stroke-linecap:round;stroke-linejoin:round;stroke-miterlimit:10;}
	.st5{fill:#99DB3B;}
	.st6{fill:#474C68;}
	.st7{fill:none;stroke:#34374F;stroke-width:11;stroke-linecap:round;stroke-linejoin:round;stroke-miterlimit:10;}
	.st8{fill:#34374F;}
	.st9{fill:none;stroke:#34374F;stroke-width:13;stroke-linecap:round;stroke-linejoin:round;stroke-miterlimit:10;}
	.st10{fill:none;stroke:#FFFFFF;stroke-width:12;stroke-linecap:round;stroke-linejoin:round;stroke-miterlimit:10;}
	.st11{fill:none;stroke:#34374F;stroke-width:12;stroke-linecap:round;stroke-linejoin:round;}
	.st12{fill:none;stroke:#34374F;stroke-width:12;stroke-linecap:round;stroke-linejoin:round;stroke-dasharray:27.2333,27.2333;}
</style>
<g>
<ellipse class="st0" cx="268.57" cy="89.45" rx="71.35" ry="67.52"/>
<g>
<polygon class="st6" points="234.2,107.9 229.55,107.73 202.38,111.59 192.33,119.68 181.54,129.69 163.67,132.39 141.34,150.11     131.29,174.38 130.18,203.28 130.55,234.1 132.41,243.73 144.69,246.43 148.04,236.8 148.04,199.04 160.32,179.78 174.84,173.61     222.85,174.77 234.2,174.9   "/>
<path class="st2" d="M234.2,174.98h-55.01c-17.36,0-31.44,14.57-31.44,32.54v83.04c0,45.27,35.45,81.96,79.18,81.96h7.27V174.98z"/>
<path class="st3" d="M234.2,364.15c-38.81-3.23-69.33-36.83-69.33-77.83V197.9c0-8.99,3.7-17.07,9.59-22.74    c-15.02,1.68-26.71,14.84-26.71,30.83v88.42c0,43.14,33.78,78.11,75.46,78.11h11V364.15z"/>
<path class="st2" d="M145.31,286.14h1.67v-39.32h-8.07c-6.03,0-10.93,4.89-10.93,10.93v11.07    C127.99,278.39,135.75,286.14,145.31,286.14z"/>
<path class="st3" d="M184.7,142.7c0,0-35.17,3.76-51.36,46.52l0.84-19.07l11.17-21.38l27.91-18.49l15.63-2.31L184.7,142.7z"/>
<path class="st4" d="M145.31,286.14h1.67v-39.32h-8.07c-6.03,0-10.93,4.89-10.93,10.93v11.07    C127.99,278.39,135.75,286.14,145.31,286.14z"/>
<path class="st2" d="M234.2,364.53l-46.04,5.16v29.78c11.57,15.59,28.91,23.08,46.04,22.49V364.53z"/>
<g>
<path class="st3" d="M204.16,395.99L204.16,395.99l0-26.44l-16,0.13v29.78c11.55,15.57,28.85,23.05,45.94,22.49l-2.45-9.4     L204.16,395.99z"/>
<path class="st3" d="M234.09,421.95l0.1,0.39v-0.39C234.16,421.95,234.13,421.95,234.09,421.95z"/>
</g>
<path class="st1" d="M234.2,422.34c-28.4,1.96-46.65-22.03-46.65-22.03s-33.87,25.73-53.72,27.97    c-9.71,1.09-26.13,5.67-41.05,11.37c-19.02,7.26-33.67,22.26-39.91,40.94l-1.96,5.87H234.2V422.34z"/>
<path class="st3" d="M105.05,451.58c14.92-5.7,31.34-10.27,41.05-11.37c19.85-2.24,53.72-27.97,53.72-27.97s0.8,0.5,2.35,1.15    c-9.33-6.12-14.63-13.09-14.63-13.09s-33.87,25.73-53.72,27.97c-9.71,1.09-26.13,5.67-41.05,11.37    c-19.02,7.26-33.67,22.26-39.91,40.94l-1.96,5.87h16.64C74.71,470.62,88.15,458.04,105.05,451.58z"/>
<path class="st4" d="M188.15,365.25c-0.28,11.89-0.28,22.45-0.28,33.98l42.99,27.07"/>
<path class="st5" d="M234.2,278.79h-64.5c0,0-2.64,69.4,25.51,88.23l31.36,6.16l7.63-0.15V278.79z"/>
<path class="st3" d="M175.21,284.57c0,0,10.05,68.77,37.4,83.8l-17.41-1.35l-15.53-15.99l-8.37-38.14l-1.67-21.38L175.21,284.57z"/>
<path class="st4" d="M232,278.79c-20.94,0.41-41.35,0.41-62.68,0.41c0,10.56,0.93,20.16,1.85,30.72    c0.93,13.44,10.48,42.38,19.46,52.89"/>
<line class="st4" x1="170.18" x2="146.98" y1="281.1" y2="246.82"/>
<path class="st4" d="M230.47,174.98h-51.29c-17.36,0-31.44,14.57-31.44,32.54v83.04c0,45.27,35.45,81.96,79.18,81.96h4.72"/>
<path class="st4" d="M187.97,126.83c-0.42,0.03-0.83,0.06-1.25,0.09c-31.32,2.48-55.49,28.92-55.49,60.74l0.06,61.08"/>
<path class="st4" d="M230.86,462.27l-43.32-61.97c-19.15,13.32-39.55,26.76-63.67,30.6c-22.26,2.88-44.52,10.56-60.29,29.76    c-6.49,7.68-9.28,17.28-12.69,25.78c0.03,0,3.52-10.54,0,0c59.99,0.14,121.2,0.14,181.21,0l-0.01-378.87    c-11.76,1.68-23.82-0.24-34.95,6.48c-10.2,5.76-9.28,20.16-10.72,31.62"/>
</g>
<g>
<g>
<line class="st11" x1="256.17" x2="256.17" y1="105.83" y2="119.83"/>
<line class="st12" x1="256.17" x2="256.17" y1="147.07" y2="460.25"/>
<line class="st11" x1="256.17" x2="256.17" y1="473.87" y2="487.87"/>
</g>
</g>
<g>
<path class="st6" d="M282.48,106.59c18.31,1.16,36.78,3.32,54.1,10.22c17.32,6.89,33.56,18.93,43.56,36.48    c11.68,20.49,13.77,45.98,15.53,70.35c3.27,45.27,8.16,119.64,11.43,164.91l-81.72-1.82L282.48,106.59z"/>
<polygon class="st6" points="378.61,162.65 371.16,143.38 360,129.9 345.48,121.42 322.41,116.03 298.96,111.79 277.73,111.05     277.73,178.14 336.18,178.83 357.02,191.16 362.23,201.94 362.98,218.12 362.23,240.47 365.58,248.94 377.86,249.72     378.98,228.53   "/>
<path class="st2" d="M331.25,178.27h-53.53v197.54h5.79c43.73,0,79.18-36.7,79.18-81.96v-83.04    C362.69,192.84,348.61,178.27,331.25,178.27z"/>
<path class="st6" d="M281.45,202.99c0,0,18.29,12.79,46.71,18.04c9.47,1.75,20.07,2.66,31.5,1.98l26.36-4.55l-39.54-63.67    l-65.9-2.73L281.45,202.99z"/>
<path class="st3" d="M304.35,367.72h-16.57c-3.41,0-6.76-0.26-10.05-0.71v8.8h9.51c14.52,0,28.07-4.25,39.58-11.61    C319.72,366.48,312.17,367.72,304.35,367.72z"/>
<path class="st2" d="M364.13,289.43h-1.67v-39.32h8.07c6.03,0,10.93,4.89,10.93,10.93v11.07    C381.45,281.67,373.69,289.43,364.13,289.43z"/>
<path class="st4" d="M363.35,250.11h7.97c5.6,0,10.13,4.7,10.13,10.49v12.2c0,9.19-7.19,16.63-16.07,16.63"/>
<path class="st2" d="M277.73,372.63v52.6c17.19,0.65,34.63-6.83,46.24-22.48v-30.49L277.73,372.63z"/>
<path class="st3" d="M277.73,418.7v6.53c7.24,0.27,14.52-0.9,21.4-3.52C291.91,422.16,284.63,421.14,277.73,418.7z"/>
<path class="st5" d="M277.73,489.74H461.1l-1.96-5.87c-6.24-18.68-20.89-33.68-39.91-40.94c-14.92-5.7-31.34-10.27-41.05-11.37    c-19.85-2.24-53.72-27.97-53.72-27.97c-17.46,16.88-33.35,22.32-46.73,22.14V489.74z"/>
<path class="st4" d="M323.97,363.07c0.46,13.81,0.46,26.29,0.46,39.74c-11.13,13.44-26.9,23.04-44.43,22.48"/>
<path class="st1" d="M341.14,282.08h-63.41v94.32l16.03-0.31l21.87-6.31C343.78,350.95,341.14,282.08,341.14,282.08z"/>
<path class="st4" d="M324.46,403.59c12.02,9.78,25.94,18.42,39.85,24.18c2.78,0.96,5.57,1.92,8.35,2.88    c20.41,3.84,38.96,7.68,57.51,17.28c15.77,8.64,26.9,24.96,30.94,41.8c-3.24,0-4.09-12.25,0,0c-60.62,0.45-120.91,0.45-181.21,0    l-0.2-385.67c18.31,1.16,39.57,5.85,56.89,12.74c17.32,6.89,33.56,18.93,43.56,36.48c11.68,20.49,13.77,45.98,15.53,70.35    c3.27,45.27,8.16,119.64,11.43,164.91l-81.72-1.82"/>
<path class="st4" d="M318.64,367.52c4.78-3.69,8.09-7.11,10.42-12.71c9.28-23.04,12.99-48.01,12.06-72.97    c-20.41,0-38.83,0-59.38,0.24"/>
<line class="st4" x1="363.35" x2="340.15" y1="250.11" y2="284.39"/>
<path class="st4" d="M291.18,374.83c11.05-5.41,15.78-15.02,18.04-30.62"/>
<path class="st4" d="M283.51,375.81c43.73,0,79.18-36.7,79.18-81.96v-69.03"/>
<path class="st4" d="M343.83,418.95c-9.97,13.08-24.26,22.47-39.83,26.6"/>
<path class="st4" d="M281.45,202.99c0,0,18.29,12.79,46.71,18.04c9.47,1.75,33.84,2.66,45.26,1.98"/>
</g>
<g>
<g>
<ellipse class="st3" cx="248.24" cy="91.2" rx="71.35" ry="67.52"/>
<ellipse class="st3" cx="248.24" cy="91.2" rx="71.35" ry="67.52"/>
</g>
<g>
<ellipse class="st3" cx="248.24" cy="91.2" rx="71.35" ry="67.52"/>
<g>
<path class="st5" d="M196.25,91.2c0-34.48,27.32-62.91,62.59-67c-2.87-0.33-5.79-0.52-8.76-0.52      c-39.41,0-71.35,30.23-71.35,67.52c0,37.29,31.94,67.52,71.35,67.52c2.97,0,5.89-0.19,8.76-0.52      C223.57,154.11,196.25,125.69,196.25,91.2z"/>
</g>
<ellipse class="st4" cx="248.24" cy="91.2" rx="71.35" ry="67.52"/>
</g>
<path class="st7" d="M215.75,67.24v-1.47c0-7.16,6.13-12.96,13.69-12.96h9.03c7.56,0,13.69,5.8,13.69,12.96l0,0    c0,3.02-1.11,5.95-3.15,8.27l-27.62,31.52c-3.15,3.59-4.88,8.1-4.9,12.77l-0.02,4.97c-0.01,1.35,1.15,2.45,2.57,2.45h32.28"/>
<g>
<path class="st7" d="M251.48,125.65c-0.04-8.29-0.05-16.87-0.05-25.29c0-3.58,2.39-6.48,5.34-6.48h4.4     c5.28,0,9.56,5.2,9.56,11.61c0,6.75,0,13.55,0.01,20.16"/>
<path class="st7" d="M290.01,125.65c0.04-8.29,0.05-16.87,0.05-25.29c0-3.58-2.39-6.48-5.34-6.48h-4.4     c-5.28,0-9.56,5.2-9.56,11.61c0,6.75,0,13.55-0.01,20.16"/>
</g>
</g>
</g>
</svg>