<?xml version="1.0" encoding="utf-8"?>
<!-- Generator: Adobe Illustrator 24.0.2, SVG Export Plug-In . SVG Version: 6.00 Build 0)  -->
<svg version="1.1" id="Layer_1" xmlns="http://www.w3.org/2000/svg" xmlns:xlink="http://www.w3.org/1999/xlink" x="0px" y="0px"
	 viewBox="0 0 512 512" style="enable-background:new 0 0 512 512;" xml:space="preserve">
<style type="text/css">
	.st0{fill:#8ADEFF;}
	.st1{fill:#F8A887;}
	.st2{fill:#3F6093;}
	.st3{fill:#F58A68;}
	.st4{fill:#DCF1FC;}
	.st5{fill:#25364C;}
	.st6{fill:#AF6346;}
	.st7{fill:#7A4B35;}
	.st8{fill:#F6977E;}
	.st9{fill:#172539;}
	.st10{fill:#93533A;}
	.st11{fill:#FFFFFF;}
	.st12{fill:none;stroke:#DCF1FC;stroke-width:1.7767;stroke-miterlimit:10;}
	.st13{fill:none;stroke:#192040;stroke-width:1.7767;stroke-miterlimit:10;}
	.st14{fill:#0E133B;}
	.st15{fill:#000026;}
	.st16{fill:#274F7A;}
	.st17{fill:#171E46;}
	.st18{fill:#0F3052;}
</style>
<circle class="st0" cx="256" cy="256" r="249.1915"/>
<path class="st1" d="M281.9449,132.2546h-35.8026V93.1742h35.8026C281.9449,93.1742,278.1293,123.9648,281.9449,132.2546z"/>
<polygon class="st1" points="296.3339,137.406 280.3931,125.7376 246.1423,125.7376 227.1981,137.406 "/>
<path class="st2" d="M197.5327,339.4877c1.2344-18.4635-4.2486-68.0473-2.826-86.4986l-0.2262,2.9989
	c0,0-21.5581-1.555-38.1621-24.1805l16.3829-66.3862c4.1472-13.0306,28.2621-20.7343,28.2621-20.7343l45.1789-18.9494
	c27.0804,21.4387,34.2508,0,34.2508,0l42.0406,17.1759c0,0,9.7696,4.9599,13.3211,17.8415l14.0278,81.6035l-34.3465,2.9725
	c0.471,5.3295-3.0323,78.586-2.5953,83.9155C312.8408,329.2465,338.2781,349.3273,197.5327,339.4877z"/>
<g>
	<path class="st1" d="M307.1509,250.7543l29.0363-11.7282c0,0,19.6895,90.009,54.2764,149.7131l-9.3712,2.826
		C381.0924,391.5652,322.3232,318.4385,307.1509,250.7543z"/>
	<g>
		<path class="st1" d="M422.9743,413.4793c-4.0655,5.733-14.648-11.2648-17.8293-13.2638
			c2.6814,3.7095,13.9315,17.0171,11.0913,20.708c-1.8833,2.0228-10.2361-11.198-12.2929-13.3455
			c1.1534,2.5034,7.3098,11.6195,4.7627,13.6815c-2.1289,1.0192-7.5688-8.2178-9.6932-10.7405
			c0.1247,0.8405,5.2093,9.4046,3.1139,9.6977c-2.0086,0.4228-6.4301-4.969-8.4292-7.8143
			c-8.9966-12.8359-19.3239-26.7674-9.1932-30.396c7.5688-2.7104,11.822-3.9987,32.6116,6.2091
			c3.5804,1.7587-2.614,5.5743-10.4906,3.5804C406.4378,393.8091,423.4594,412.7918,422.9743,413.4793z"/>
		<g>
			<g>
				<path class="st3" d="M401.7246,391.2011c0.1872,0.0204,0.3744,0.0408,0.5615,0.0612c0.1642,0.0179,0.596,0.0262,0.6634-0.1846
					c0.0686-0.2147-0.2107-0.307-0.3767-0.3251c-0.2442-0.0266-0.4887-0.0414-0.7339-0.0565
					c-0.1924-0.0118-0.5884,0.0573-0.6157,0.3017c0.0001-0.0011-0.0513,0.3208-0.0436,0.3273
					c-0.0314-0.0263,0.5624-0.0735,0.0584-0.0999c-0.2325-0.0121-0.4648-0.0213-0.6974-0.0296
					c-0.5595-0.0199-1.1281-0.0457-1.5991,0.3104c-0.0691,0.0522-0.1423,0.1105-0.1996,0.175
					c-0.0385,0.0366-0.079,0.0709-0.1215,0.103c0.2745-0.0487,0.3184-0.0641,0.1318-0.0464
					c-0.205,0.007-0.3967,0.0511-0.6034,0.0367c-0.4814-0.0336-0.9384-0.2186-1.3612-0.441
					c-0.9478-0.4985-1.7585-1.254-2.475-2.0405c-0.3325-0.365-0.6428-0.7502-0.9373-1.1463
					c-0.2683-0.3608-0.4918-0.7876-0.8184-1.0984c-0.2979-0.2836-1.7057-0.3265-1.5222,0.3145
					c0.1339,0.4676,0.6061,0.9386,0.9053,1.3138c0.4045,0.5074,0.8343,0.9973,1.2954,1.4541
					c0.9384,0.9295,2.0374,1.7499,3.3027,2.1685c0.6165,0.2039,1.2724,0.3025,1.9214,0.2682
					c0.3394-0.0179,0.726-0.0412,1.0515-0.1477c0.3088-0.101,0.4419-0.2894,0.6911-0.4613c0.1467-0.1012-0.0495-0.0258,0.1679-0.031
					c0.1418-0.0034,0.2845,0.0033,0.4264,0.0034c0.3179,0.0004,0.6495,0.0081,0.9647-0.0372
					c0.5861-0.0843,0.7337-0.3438,0.6933-0.8957c-0.2052,0.1006-0.4104,0.2011-0.6156,0.3017
					c0.2451-0.007,0.4893-0.0189,0.7339-0.0371c0.1704-0.0127,0.4432-0.1147,0.3767-0.3251
					c-0.0668-0.2114-0.5109-0.1959-0.6634-0.1846c-0.1872,0.0139-0.3743,0.0279-0.5615,0.0418
					C401.336,390.8234,401.3484,391.1601,401.7246,391.2011L401.7246,391.2011z"/>
			</g>
		</g>
	</g>
</g>
<path class="st4" d="M304.8158,135.5272l19.41,7.7133c0,0,12.1779,2.6718,16.9162,27.4961c0,0,20.8905,142.9199,49.3216,205.1667
	c0,0-12.0096,16.3533-21.4868,21.4527c0,0-48.7638-88.6158-68.5054-158.2078C300.4714,239.1482,293.3633,172.0295,304.8158,135.5272
	z"/>
<g>
	<path class="st1" d="M170.8077,276.8785c-6.4784,3.8374-15.1575,3.6138-20.5731-2.2201c-1.3989-1.5068-2.2689-3.1338-2.7637-4.8443
		c10.8755-35.3438,19.5116-67.6938,19.5116-67.6938l30.9004,16.025c-5.4734,19.4344-14.6666,39.1208-24.9464,57.2771
		C172.2541,275.9506,171.5479,276.439,170.8077,276.8785z"/>
</g>
<polygon class="st5" points="312.7367,497.3582 315.4361,363.3938 309.1891,308.2788 216.3085,308.6586 216.3085,349.0195 
	239.8323,497.3582 "/>
<polygon class="st5" points="261.1591,497.3582 270.9974,348.0775 272.084,308.6586 197.9459,308.6586 197.9459,349.0195 
	199.2747,497.3582 "/>
<path class="st3" d="M246.1423,110.8905V93.1742h35.8026c0,0-1.0763,8.6959-1.5133,18.089
	C270.1229,116.0978,257.1186,115.3743,246.1423,110.8905z"/>
<g>
	<path class="st6" d="M296.285,57.6358c-1.4991,5.9187-2.9455,12.7543-6.2039,18.1968c-3.7244,6.2214-10.2169,7.4731-14.143,0.8289
		c-3.7056-6.2566-4.6714-14.4526-4.3347-21.4212c0.1825-3.8059,0.8887-8.1793,4.0366-11.164
		c4.9163-4.6612,12.2358-4.3611,16.8822-0.2114C296.8813,47.7601,297.6068,52.4213,296.285,57.6358z"/>
	<path class="st1" d="M288.404,47.2821c1.6822,6.5574,2.8742,13.5138,3.3979,20.5609c0.5095,6.8125,0.3938,13.6847-0.5385,20.4561
		c-0.942,6.8722-1.7928,19.6285-8.9195,23.3772c-2.2059,1.156-4.0893,1.3385-6.7855,1.521
		c-10.2798,0.692-22.0298-4.676-29.4977-11.3992c-13.927-12.5332-18.3582-46.7692-7.9775-61.6164"/>
	<path class="st3" d="M243.1248,98.6528c-11.5585-14.3736-14.6531-44.7266-5.0416-58.4711
		c0.5237-0.7473,1.1386-1.4393,1.8121-2.0935l-0.7647,27.5925l2.6673,8.1002L243.1248,98.6528z"/>
	<g>
		<g>
			<path class="st6" d="M270.949,64.4109c-0.2494-0.8909-1.2827-1.7687-2.0881-2.1551c-0.911-0.4371-2.1895-0.6729-3.1964-0.7234
				c-1.4633-0.0734-3.0036,0.0426-4.4545,0.2436c-1.1927,0.1652-2.0698,0.6244-3.0996,1.216
				c-0.9003,0.5172-2.0614,1.1721-2.3785,2.2088c-0.1837,0.6006-0.2885,1.5232-0.0013,2.1084
				c-0.0635-0.1293,1.0401,0.7101,0.309,0.3828c0.1779,0.0797,0.0931,0.0316,0.2219-0.0115
				c0.2385-0.0798,0.5145-0.3599,0.7331-0.4976c0.8859-0.5582,1.7216-0.8455,2.7422-1.0187
				c1.2508-0.2123,2.4609-0.5747,3.7293-0.7384c1.4446-0.1865,2.7501-0.2814,4.1859-0.0285
				c0.6974,0.1229,1.287,0.2563,1.9963,0.2141c0.2771-0.0165,0.9233-0.1128,1.1294,0.1362
				C270.902,65.8978,270.9958,64.5782,270.949,64.4109L270.949,64.4109z"/>
		</g>
	</g>
	<g>
		<g>
			<path class="st6" d="M282.1538,64.3345c-0.0356,0.0755,0.1143,0.0153,0.2054,0.0176c0.2113,0.0054,0.4193,0.0688,0.6245,0.1119
				c0.27,0.0567,0.498-0.0094,0.7684-0.0495c0.3491-0.0519,0.7006-0.0874,1.0525-0.1127c0.7907-0.0568,1.5858-0.0613,2.3774-0.0226
				c0.4437,0.0217,0.9005,0.1116,1.3427,0.1111c0.1752-0.0002,0.3639-0.0325,0.5372-0.0593
				c0.2785-0.043,0.5091-0.0454,0.7945-0.0235c0.3615,0.0276,0.7858,0.1643,1.1421,0.14c0.5415-0.0369,0.5469-1.0271,0.5217-1.414
				c-0.0324-0.4988-0.1359-1.057-0.6446-1.245c-0.429-0.1585-0.9008-0.2484-1.3481-0.3371
				c-0.4358-0.0864-0.8137-0.2958-1.2723-0.2941c-0.4464,0.0017-0.8928,0.0193-1.3381,0.051
				c-0.7837,0.0558-1.5658,0.1533-2.3372,0.3029c-0.3715,0.072-0.7413,0.1558-1.105,0.2604
				c-0.3381,0.0972-0.5792,0.2991-0.8291,0.5426c-0.3922,0.3822-0.662,0.7519-0.6942,1.3135
				C281.9458,63.7282,282.0087,64.6426,282.1538,64.3345L282.1538,64.3345z"/>
		</g>
	</g>
	<path class="st7" d="M284.7227,69.3838c0.0623,1.1605,0.87,2.0588,1.8024,2.0113c0.9324-0.0508,1.6385-1.0288,1.5762-2.1918
		c-0.0623-1.1605-0.87-2.0595-1.8024-2.0113C285.3665,67.2428,284.6655,68.2227,284.7227,69.3838z"/>
	<path class="st7" d="M265.0627,71.2408c0.0623,1.1631,0.87,2.062,1.8018,2.0113c0.9323-0.0482,1.6391-1.0281,1.5762-2.1912
		c-0.0624-1.1585-0.8694-2.0594-1.8018-2.0093C265.7065,69.1024,265.0049,70.0829,265.0627,71.2408z"/>
	<g>
		<g>
			<path class="st3" d="M278.8759,112.6064c-0.5837-0.3385-1.2198-0.331-1.8762-0.2897c-1.3665,0.086-2.7096,0.0134-4.073-0.1003
				c-2.6487-0.2208-5.2631-0.5248-7.8385-1.2065c-1.7338-0.4589-3.5065-0.8949-5.1624-1.5949
				c-1.5325-0.6478-2.9648-1.5086-4.3869-2.3656c-2.7864-1.6792-5.7132-3.2911-8.2409-5.3557
				c-1.5843-1.294-2.7221-2.8513-3.2822-4.8343c-0.3919-1.3876-0.5406-2.8399-0.661-4.2719
				c-0.1549-1.8422,0.0847-4.2668-0.9038-5.8903c-0.1565-0.2571-0.8717-0.2835-1.0172,0c-0.8159,1.5894-0.4164,3.8924-0.2958,5.6191
				c0.0943,1.35,0.2155,2.7107,0.4925,4.0374c0.4314,2.066,1.3312,3.8164,2.8504,5.2921c2.1854,2.1229,4.9789,3.6416,7.5551,5.2262
				c3.1343,1.9279,6.1341,3.6645,9.695,4.6672c2.8456,0.8013,5.705,1.4097,8.6514,1.691c1.4222,0.1358,2.8504,0.222,4.2794,0.2196
				c0.6591-0.0011,1.3461,0.0126,2.001-0.0824c0.5621-0.0815,1.2111-0.4472,1.7809-0.3973
				C278.6246,112.986,279.2851,112.8437,278.8759,112.6064L278.8759,112.6064z"/>
		</g>
	</g>
	<g>
		<g>
			<path class="st8" d="M238.7012,70.8399c-0.0206-0.3644-0.0297-0.6488-0.1518-0.9981c-0.1312-0.3751-0.2684-0.7202-0.4821-1.0563
				c-0.4018-0.6316-0.8907-1.2171-1.4574-1.7077c-1.189-1.0293-2.7005-1.857-4.2946-1.9484
				c-0.8797-0.0504-1.6391,0.2074-2.4123,0.5923c-0.2701,0.1345-0.5447,0.2754-0.7618,0.4871
				c-0.1119,0.1091-0.4349,0.4254-0.5185,0.5759c-0.0551,0.0992-0.0234,0.2301-0.0695,0.3288
				c-0.0705,0.1511-0.2167,0.2154-0.3188,0.3422c-0.1868,0.232-0.21,0.5893-0.2949,0.8664
				c-0.1993,0.6501-0.3578,1.3344-0.4975,1.9996c-0.1839,0.876-0.2686,1.7774-0.3383,2.6687
				c-0.063,0.8054-0.0186,1.776,0.2246,2.5494c0.0243,0.0773,0.2372,0.0608,0.2534-0.0168c0.1499-0.718,0.0811-1.4772,0.2187-2.204
				c0.1515-0.8001,0.2692-1.6101,0.4522-2.4043c0.1679-0.7285,0.4134-1.4454,0.6467-2.1555
				c0.1131-0.3443,0.2107-0.6684,0.5089-0.898c0.308-0.2372,0.7081-0.3791,1.0524-0.5521
				c-0.2592,0.0526-0.5184,0.1052-0.7776,0.1578c0.8777,0.0126,1.5822-0.4817,2.3476-0.8349
				c0.0464-0.0214,0.1083-0.0575,0.1436-0.0762c0.3126-0.1654,0.1335-0.0071,0.0805-0.0472
				c-0.0094-0.0071-0.4325-0.0026-0.4307-0.0066c0.0043-0.0091,0.3108,0.0885,0.3396,0.0979
				c0.3387,0.1103,0.5685,0.3168,0.8833,0.5266c0.7503,0.5,1.4738,0.9162,2.0921,1.5951c0.2965,0.3256,0.5654,0.6839,0.7637,1.0777
				c0.2847,0.5653,0.4816,0.9099,1.0195,1.2768c0.3106,0.2118,0.7095,0.2659,1.0781,0.215
				C238.2189,71.2608,238.7183,71.1427,238.7012,70.8399L238.7012,70.8399z"/>
		</g>
	</g>
	<g>
		<g>
			<path class="st3" d="M281.9627,62.874c-0.1148,1.3442-0.6262,2.5215-0.5712,3.9208c0.0598,1.5216,0.4164,2.9656,0.7327,4.4463
				c0.309,1.4464,0.4869,2.9312,0.7599,4.3871c0.2957,1.5766,0.8257,3.1239,1.2585,4.6691c0.3918,1.399,1.0719,3.0779-0.2632,4.1435
				c-1.1219,0.8954-2.298,1.0839-3.6473,1.3491c-0.8612,0.1693-1.8744,0.7562-2.4822-0.0618c-0.2031-0.2734-1.0901-0.386-1.2499,0
				c-0.8469,2.0467,4.2005,0.8106,4.8885,0.7141c1.4825-0.208,2.936-0.7772,4.0557-1.7999
				c1.2195-1.1139,0.6929-2.6945,0.2856-4.0944c-0.583-2.0035-1.1618-3.9854-1.6013-6.0213
				c-0.2098-0.972-0.3144-1.9583-0.5167-2.9301c-0.1719-0.8256-0.5012-1.6046-0.7336-2.4142
				c-0.4077-1.4203-0.6514-2.8831-0.6862-4.3615c-0.0151-0.6417,0.1277-1.3101,0.0524-1.9467
				C282.2331,62.7779,281.971,62.7765,281.9627,62.874L281.9627,62.874z"/>
		</g>
	</g>
	<g>
		<g>
			<path class="st3" d="M273.9454,93.7122c-0.9536,0.1675-2.0036,0.0044-2.9363-0.224c-0.4928-0.1207-0.9848-0.2634-1.4559-0.4526
				c-0.507-0.2035-1.0465-0.3462-1.5456-0.5637c-0.1325-0.0577-0.2326-0.1372-0.3505-0.2164
				c-0.2239-0.1505-0.4704-0.2198-0.7089-0.3365c-0.4536-0.2219-0.8955-0.5556-1.307-0.8297
				c-0.242-0.1612-0.513-0.3369-0.7449-0.529c-0.1399-0.1159-0.2368-0.2316-0.3504-0.3708c-0.1857-0.2276-0.3898-0.3067-0.63-0.4546
				c-0.4153-0.2558-1.2604-0.2116-1.6375,0.1034c-0.0593,0.0533-0.1221,0.1021-0.1884,0.1465
				c-0.1096,0.0825-0.1696,0.1914-0.1803,0.3266c0.1115,0.6573,0.7974,1.0819,1.3044,1.4434
				c0.7841,0.559,1.5504,1.1535,2.4711,1.4669c-0.1723-0.0844-0.3447-0.1689-0.517-0.2533
				c0.6209,0.5234,1.3437,0.7266,2.1047,0.9486c0.8534,0.2489,1.6558,0.5676,2.5335,0.748
				c1.6876,0.3469,3.4499,0.5591,4.9663-0.4254c0.182-0.1182,0.0692-0.3047-0.0573-0.3987
				C274.5207,93.6961,274.1738,93.6721,273.9454,93.7122L273.9454,93.7122z"/>
		</g>
	</g>
	<path class="st6" d="M225.4491,72.3776c-1.2447-2.3814-0.9755-7.1679-1.0718-9.8159c-0.135-3.4024-0.0097-6.8434,0.764-10.1667
		c1.7111-7.3548,7.4441-19.8354,16.5268-19.874c3.6093-0.0141,7.358,3.2996,8.9529,6.3248
		c2.4655,4.6875-0.3939,8.888-3.3542,12.4922c-3.7051,4.5076-6.8723,9.1071-6.853,15.2295c0.0051,1.7734,1.884,6.6075,1.5377,8.1792
		c-0.3509,1.5762-1.8166,2.1147-2.3788,0.9131c-2.7341-2.2227-2.7052-8.559-7.0207-8.9362
		c-4.6856-0.4061-5.2286,6.4636-4.9356,9.5755C226.8858,75.023,226.1456,73.7109,225.4491,72.3776z"/>
	<g>
		<path class="st1" d="M228.6015,67.3315c-4.2287,4.7383-0.5526,17.4521,8.6984,21.2175c2.0858-2.612,1.4702-9.0685,1.557-12.3797
			c0.0771-3.2462,0-6.3485-2.1385-8.9676C236.0598,66.3965,231.7154,63.8449,228.6015,67.3315z"/>
		<g>
			<g>
				<g>
					<path class="st3" d="M235.1379,75.9097c-0.0248,0.6648,0.0865,1.3353-0.0359,1.9952c-0.0063,0.034-0.0188,0.0709-0.021,0.1053
						c-0.0066,0.0997,0.0641-0.0528,0.0163,0.0136c-0.0301,0.0419-0.077,0.0784-0.114,0.1143
						c-0.0767,0.0743-0.1557,0.1462-0.2382,0.2141c-0.0711,0.0586-0.1595,0.1069-0.2262,0.1697
						c-0.028,0.0264,0.1189-0.0614,0.0087-0.0068c-0.043,0.0213-0.0854,0.0451-0.1281,0.0672
						c-0.0308,0.0159-0.1528,0.062-0.0151,0.0107c0.1389-0.0517,0.0204-0.005-0.0115-0.0001
						c-0.1433,0.0223,0.1599-0.0274,0.1071-0.0195c-0.1742,0.0259,0.1248-0.0029,0.1121-0.0027
						c-0.1465,0.002,0.207,0.0187,0.1465,0.0127c-0.0428-0.0043-0.152-0.0264,0.0259,0.0095
						c0.1754,0.0354,0.0711,0.0137,0.0291,0.0008c-0.0188-0.0057,0.2153,0.093,0.0788,0.0253
						c-0.1447-0.0717,0.1232,0.109,0.0002-0.0002c-0.0476-0.0422-0.0946-0.083-0.1402-0.1276
						c-0.1115-0.109,0.0621,0.0907-0.0342-0.0403c-0.0438-0.0596-0.0867-0.1189-0.126-0.1816
						c-0.1684-0.2685-0.2897-0.5654-0.3912-0.8646c-0.0284-0.0836-0.055-0.1677-0.0802-0.2523
						c-0.0119-0.0399-0.0233-0.08-0.0348-0.1201c0.0295,0.1032-0.0027-0.0103-0.013-0.0503
						c-0.0489-0.1886-0.0921-0.3786-0.1311-0.5695c-0.1467-0.7183-0.2152-1.4416-0.2994-2.1683
						c-0.0421-0.3634-0.1384-0.8162-0.4162-1.0723c-0.09-0.083,0.0021,0.0402-0.0093-0.0096
						c-0.0057-0.0249-0.0243-0.0496-0.034-0.0733c-0.0182-0.0443-0.0381-0.0923-0.0615-0.134
						c-0.0846-0.1503-0.2143-0.2521-0.3822-0.3009c0.0939,0.0803,0.1879,0.1605,0.2819,0.2408
						c-0.0001-0.0026-0.0003-0.0052-0.0004-0.0079c-0.0214-0.3955-1.1588-0.3803-1.1382,0
						c0.0001,0.0026,0.0003,0.0052,0.0004,0.0079c0.094-0.0803,0.1879-0.1605,0.2819-0.2408
						c-0.157,0.0517-0.2919,0.1407-0.3627,0.2932c-0.0162,0.0349-0.0248,0.0756-0.0367,0.1122
						c-0.0094,0.0289-0.0571,0.1905-0.0257,0.1205c0.0334-0.0746-0.0939,0.088-0.1098,0.1151
						c-0.0175,0.0299-0.0242,0.0566-0.0372,0.0891c-0.0272,0.0675-0.0446,0.142-0.0648,0.2119
						c-0.0527,0.1816-0.0646,0.385-0.0562,0.5748c0.0167,0.378,0.1034,0.7678,0.1686,1.1399
						c0.0723,0.413,0.1569,0.8242,0.2614,1.2303c0.1881,0.7318,0.4065,1.5259,0.8812,2.1309
						c0.6527,0.8319,1.8188,1.0273,2.7761,0.6198c0.4395-0.1871,0.863-0.5501,1.1354-0.9421
						c0.2202-0.317,0.0905-0.8374,0.0194-1.1882c-0.0849-0.4189-0.2086-0.8298-0.2788-1.2517
						C236.3437,75.4815,235.1545,75.4634,235.1379,75.9097L235.1379,75.9097z"/>
				</g>
			</g>
			<g>
				<g>
					<path class="st3" d="M234.6799,72.8255c-0.2937-0.9886-1.9026-1.3557-2.7751-1.2639c-1.1979,0.126-2.2224,0.9938-2.5728,2.1444
						c-0.3687,1.2111-0.2746,2.6543,0.1836,3.8271c0.2541,0.6504,0.6424,1.1856,1.0895,1.7153
						c0.4642,0.5499,0.9121,1.0114,1.5551,1.3443c0.1506,0.078,0.9717,0.1167,0.812-0.2316
						c-0.1871-0.4081-0.4259-0.7621-0.6491-1.1535c-0.2424-0.4252-0.4536-0.866-0.6943-1.2917
						c-0.5477-0.9688-0.7031-2.0334-0.6347-3.1337c0.0516-0.8297,0.2958-1.8262,1.0397-2.3182
						c0.0142-0.0094,0.2882-0.1733,0.3046-0.1317c0.0121,0.0309-0.3596-0.0767-0.069,0.008
						c0.1152,0.0335,0.2367,0.0482,0.3538,0.0733c0.4022,0.0861,0.8051,0.1816,1.0393,0.5493
						C233.8305,73.2265,234.8034,73.2411,234.6799,72.8255L234.6799,72.8255z"/>
				</g>
			</g>
		</g>
	</g>
	<path class="st6" d="M242.4225,45.1796c-4.0893-4.5995-4.0077-9.2131-0.0097-13.7587c2.533-2.8812,5.0371-9.2369,9.4483-9.1887
		c4.3399,0.0457,8.2853,2.0858,12.4376-0.2743c3.4743-1.9727,5.411-6.2522,9.5537-2.713c1.5903,1.3578,2.5278,3.9364,4.2094,5.1566
		c1.6585,1.1997,4.4505,0.2911,6.4495-0.0045c3.8978-0.5789,7.0162-1.6436,8.2705,3.1043
		c1.2928,4.9143,0.9227,10.4501-0.3316,15.3329c-0.4948,1.9297-1.2202,5.2357-2.7438,6.6557
		c-1.1392,1.0596-2.9795,1.1464-4.5223,1.4182c-7.6794,1.35-16.1613,2.7026-23.9807,2.1552
		C251.4962,52.3834,249.6552,53.3106,242.4225,45.1796z"/>
</g>
<g>
	<g>
		<g>
			<path class="st9" d="M283.064,354.3156c-0.3697,4.8131-0.9848,9.585-1.1159,14.4108c-0.18,6.6291-0.3353,13.2586-0.4893,19.8883
				c-0.0484,2.084,0.0491,4.2333-0.1559,6.3092c0.6076-0.3911,1.2152-0.7821,1.8228-1.1732
				c-1.1721,0.0933-1.9248,0.665-2.8598,1.2691c0.3146-0.1541,0.6292-0.3083,0.9438-0.4624
				c0.7681-0.2823,0.5285-0.0604,0.0764-0.0805c-0.2896-0.0129-0.5804-0.0111-0.8704-0.0166
				c-0.5654-0.0108-1.1308-0.0256-1.6963-0.0324c-0.8124-0.0098-1.6201,0.045-2.4313,0.0841
				c-0.8765,0.0422-2.2431,0.0771-2.8026,0.0314c0.2939,0.024-0.5136-0.0686-0.4961-0.0661
				c-0.5138-0.0725,0.054,0.0186-0.228-0.0464c-0.1505-0.0347-0.5538-0.2225-0.2343-0.0588
				c-0.363-0.1859,0.0226,0.0639-0.2875-0.2112c0.1404,0.2544,0.2809,0.5088,0.4213,0.7631
				c-0.0011-0.0883-0.0022-0.1766-0.0033-0.2648c-0.0116-0.9433-1.5431-1.407-2.2629-1.4564c-0.5642-0.0387-1.0746-0.0387-1.6388,0
				c-0.7257,0.0498-2.2511,0.4975-2.2629,1.4564c-0.0178,1.4428,2.1205,2.1468,3.2627,2.4363
				c2.095,0.531,4.2998,0.4451,6.4355,0.2895c0.7169-0.0522,1.4326-0.1192,2.1483-0.185c0.7269-0.0668-0.4349-0.011,0.2484-0.0079
				c0.4279,0.0019,0.857-0.0164,1.2848-0.0245c0.9917-0.019,2.0131,0.0214,2.9962-0.1162c0.6099-0.0854,1.218-0.2565,1.7343-0.5999
				c0.1712-0.1139,0.3141-0.2093,0.4504-0.362c0.3882-0.4351,0.3601-0.1671-0.6077,0.0076c0.5048-0.0912,1.9012-0.38,1.8228-1.1732
				c-0.1742-1.764-0.0927-3.5892-0.1338-5.3601c-0.0701-3.0179-0.1402-6.0359-0.2104-9.0539
				c-0.154-6.6277-0.0833-13.3035-0.8779-19.8874c-0.2528-2.0945-0.3775-4.2035-0.5391-6.3069
				C284.4696,353.8213,283.1021,353.8187,283.064,354.3156L283.064,354.3156z"/>
		</g>
	</g>
	<g>
		<g>
			<path class="st9" d="M251.2332,352.4529c-0.9318,2.6839-1.9024,5.3499-3.1973,7.8846c-0.5919,1.1586-1.3069,2.24-1.738,3.4717
				c-0.3927,1.1219-0.7416,2.2584-1.0868,3.3956c-0.6635,2.1859-1.304,4.3828-2.136,6.5123
				c-0.739,1.8914-1.6852,4.5494-3.3019,5.8611c-0.975,0.791-2.1025,1.4443-3.1091,2.2065
				c-1.0603,0.8029-2.1049,1.6537-3.2292,2.3666c-1.9776,1.2541-4.3354,2.2234-6.5309,3.0304
				c-1.1641,0.4279-2.4817,0.5999-3.6097,1.08c-0.7362,0.3134,0.8269-0.0923,0.3628,0.031
				c-0.2926,0.0777-0.6751,0.0346-0.9772,0.0668c-0.2156,0.0229-0.4294,0.0583-0.6431,0.0945
				c-1.401,0.238-2.7879,0.5687-4.1757,0.8728c-0.2052,0.045-0.4105,0.0898-0.6159,0.1339
				c-0.0793,0.017-0.7786,0.1648-0.3612,0.0779c0.4672-0.0972-0.3731,0.0743-0.371,0.0739
				c-0.2135,0.0421-0.4272,0.0832-0.6412,0.123c-0.8195,0.1526-1.6429,0.2904-2.4714,0.3844
				c-0.1895,0.0215-0.3803,0.0346-0.5695,0.0576c0.3029-0.0369,0.6294-0.0147,0.129-0.0124
				c-0.1611,0.0008-0.3301-0.0071-0.4902,0.0052c-0.573,0.044,0.635,0.0605,0.2598,0.0193
				c-0.5312-0.0585,0.5448,0.1835,0.5101,0.1646c-0.3568-0.1949,0.5968,0.4542,0.4632,0.4008
				c-0.1147-0.0459-0.0937-0.4732-0.0195,0.0359c-0.1865-1.2795-2.1766-1.6023-3.1846-1.5605
				c-0.9848,0.0409-1.9105,0.1785-2.7934,0.6274c-0.959,0.4877-0.9901,1.3625,0,1.8661c0.8907,0.4529,1.8017,0.5863,2.7934,0.6274
				c-1.0615-0.5202-2.1231-1.0403-3.1846-1.5605c-0.0414,1.7224,2.2888,2.3068,3.5906,2.4886
				c1.8429,0.2574,3.7544,0.0571,5.5821-0.2251c1.9069-0.2945,3.7962-0.709,5.6808-1.1194c0.3277-0.0714,0.655-0.1449,0.9825-0.2173
				c0.2448-0.0541,1.3506-0.2213,0.3294-0.0757c0.2404-0.0343,0.4894-0.0835,0.7278-0.1317
				c0.0714-0.0144,0.157-0.0113,0.2281-0.0307c0.3353-0.0328,0.1318-0.0198-0.6105,0.0391c0.4316,0.012,0.8553-0.0344,1.271-0.1392
				c2.9863-0.5143,5.9042-1.6588,8.6458-2.9192c1.1805-0.5427,2.3576-1.1089,3.5064-1.7164
				c1.3895-0.7348,2.6028-1.7907,3.8026-2.7971c1.0397-0.872,2.0695-1.7564,3.157-2.5692c1.1258-0.8414,1.7981-1.8978,2.428-3.1497
				c1.1612-2.3081,1.8375-4.8309,2.4303-7.3345c0.6549-2.7657,1.1047-5.5906,2.0945-8.2564
				c1.1891-3.2025,1.6278-6.6894,2.1452-10.0467C253.4063,351.9355,251.4275,351.8935,251.2332,352.4529L251.2332,352.4529z"/>
		</g>
	</g>
	<g>
		<g>
			<path class="st9" d="M299.973,350.4184c-0.6669,5.0593-0.784,10.0853-0.8425,15.184c-0.0279,2.4296-0.0558,4.8592-0.0837,7.2887
				c-0.0149,1.2984,0.0795,2.6254-0.2486,3.8849c-0.218,0.8368-0.4801,1.6424-0.4901,2.5168
				c-0.0199,1.7454,0.7155,3.474,1.3665,5.0617c0.6528,1.5922,1.3726,3.1649,2.2723,4.6347
				c1.8806,3.0722,4.6549,5.6292,8.3697,6.0177c0.8057,0.0843,3.1432,0.0065,2.7422-1.3437
				c-0.3182-1.0713-1.4697-0.847-1.9406-1.6365c-0.2975-0.4988-1.9834-0.6607-2.1951,0c-0.2018,0.6296-0.2179,1.2859-0.243,1.9269
				c1.1181-0.3144,2.2362-0.6288,3.3543-0.9432c-3.1032-0.886-5.018-3.2974-6.5231-6.0361
				c-1.4583-2.6536-3.3723-6.0513-2.7024-9.1591c0.1182-0.5481,0.377-1.0821,0.4601-1.6337
				c0.0671-0.4457-0.011-0.9619-0.0162-1.4098c-0.0144-1.2538-0.0288-2.5077-0.0432-3.7616
				c-0.0241-2.0988-0.0482-4.1975-0.0723-6.2962c-0.0552-4.8033-0.2042-9.5301-0.8323-14.2955
				C302.1994,349.6178,300.0789,349.6147,299.973,350.4184L299.973,350.4184z"/>
		</g>
	</g>
</g>
<g>
	<g>
		<path class="st10" d="M248.2026,49.7455c-1.2681,1.1546-2.0287,2.7387-3.2093,3.9847c-0.5382,0.5681-0.9899,1.2218-1.5351,1.7772
			c-0.5139,0.5235-1.0614,0.9924-1.4413,1.6313c-0.4512,0.7587-0.6981,1.6748-0.9844,2.505
			c-0.276,0.8004-0.5302,1.6082-0.7109,2.436c-0.2012,0.9217-0.2336,1.8881-0.3239,2.8268
			c-0.0798,0.8296-0.0142,1.5758,0.4636,2.2847c0.0786,0.1166,0.4117,0.1389,0.4818,0c0.3229-0.6395,0.2238-1.4194,0.3138-2.1199
			c0.1124-0.8746,0.2144-1.7808,0.4346-2.6343c0.2403-0.9314,0.5809-1.8457,0.926-2.7427c0.3132-0.814,0.5863-1.7182,1.0701-2.4483
			c0.4062-0.6128,0.9937-1.0035,1.4737-1.5398c0.5007-0.5594,0.9275-1.1981,1.4061-1.7783
			c0.4756-0.5766,0.9056-1.1533,1.2715-1.8072c0.4035-0.7211,0.6412-1.5179,1.0485-2.2337
			C249.0344,49.629,248.3217,49.6371,248.2026,49.7455L248.2026,49.7455z"/>
	</g>
</g>
<g>
	<g>
		<path class="st9" d="M271.4812,398.1779c-5.3376,22.1549-6.4584,45.0101-8.1543,67.6524
			c-0.4953,6.6136-1.0386,13.2237-1.7213,19.8209c-0.2364,2.2842,6.8459,2.5221,7.1069,0
			c2.3717-22.9167,2.8958-46.0288,6.2943-68.837c0.9327-6.2595,2.0988-12.4829,3.5813-18.6363
			c0.1253-0.5201-0.7195-1.0674-1.0408-1.2312c-0.737-0.3758-1.6996-0.51-2.5126-0.51
			C273.7532,396.4367,271.8328,396.7188,271.4812,398.1779L271.4812,398.1779z"/>
	</g>
</g>
<path class="st11" d="M278.9126,479.9427V234.0854l12.2068-104.1518l13.0088,5.3153l17.5749,46.9948l7.6459,281.825
	C329.349,464.0687,321.6889,478.5393,278.9126,479.9427z"/>
<path class="st11" d="M184.9943,464.0687v-44.8615c-2.6673-87.0628,6.0671-163.7718,6.0671-163.7718l4.3566-110.8371l45.294-16.8372
	l38.2006,106.3243v245.8573C278.9126,479.9427,210.253,484.546,184.9943,464.0687z"/>
<path class="st4" d="M240.712,127.7611l-18.9442,7.1248c0,0-5.0313,1.6629,0.8887,8.088l23.5051,30.7038l-10.2747,3.8496
	c0,0-5.0891,2.3666,1.2061,6.8093l41.8196,49.7488L240.712,127.7611z"/>
<path class="st4" d="M291.1194,129.9336l13.6964,5.5936c0,0,4.0507,2.355,1.0763,6.8986l-12.6824,30.2135l4.9934,2.8883
	c0,0,4.0604,1.4349,1.4464,5.7793l-20.7369,52.7785L291.1194,129.9336z"/>
<line class="st12" x1="278.9126" y1="232.6056" x2="278.9126" y2="479.9427"/>
<g>
	<path class="st11" d="M292.037,80.4919c0,0-22.6061-5.0313-40.8435,3.554c0,0-3.1094,12.5455,2.2773,22.4501
		c0,0,24.37,17.9706,35.1446-1.1297C288.6154,105.3663,294.4589,90.0437,292.037,80.4919z"/>
	<g>
		<path class="st11" d="M239.6305,76.7605l12.5192,8.6188l0.8552-1.557l-14.3164-9.5395c0,0,0.428,1.5357,0.0816,1.954
			L239.6305,76.7605z"/>
	</g>
	<g>
		<path class="st11" d="M237.2999,88.549l17.3005,16.5751l-1.1296,1.3719L238.871,92.2303
			C238.871,92.2303,237.636,89.7307,237.2999,88.549z"/>
	</g>
</g>
<path class="st13" d="M281.2772,125.2525c0,0,15.556-0.0308,15.556,18.923v53.7013"/>
<g>
	<path class="st13" d="M246.1764,125.2525c0,0-15.5566-0.0308-15.5566,18.923v53.7013"/>
	<g>
		<g>
			<path class="st14" d="M215.7411,218.7197h-4.1329c-0.0765-2.454,0.0385-12.2068,6.3389-18.1178
				c3.2102-3.013,7.473-4.5391,12.6682-4.5391v3.6286c-4.061,0-7.2186,1.1052-9.6546,3.3857
				C215.6833,208.0216,215.6788,216.9051,215.7411,218.7197z"/>
		</g>
		<g>
			<path class="st14" d="M245.4984,218.7197c0.0624-1.8095,0.0772-10.6711-5.2189-15.6356
				c-2.4321-2.283-5.5942-3.3927-9.6642-3.3927v-3.6286l0,0c5.1997,0,9.4624,1.5261,12.6727,4.5391
				c6.3049,5.911,6.4154,15.6638,6.3383,18.1178H245.4984z"/>
		</g>
		<path class="st15" d="M233.681,196.9977c0-0.7376-0.6773-1.3314-1.5139-1.3314h-3.0991c-0.8366,0-1.5145,0.5938-1.5145,1.3314
			v1.7613c0,0.7325,0.6779,1.3308,1.5145,1.3308h3.0991c0.8366,0,1.5139-0.5983,1.5139-1.3308V196.9977z"/>
		<g>
			<g>
				<path class="st16" d="M214.0692,218.7197h-2.062v8.1021c0.1491,3.1692,2.0331,9.2003,8.0931,9.7247l0.1825-2.055
					c-5.7767-0.4973-6.1995-7.4242-6.2136-7.7178V218.7197z"/>
			</g>
			<g>
				<path class="st17" d="M225.2563,234.5783c0-0.7904-0.6387-1.4342-1.4317-1.4342l-3.4268,0.5596
					c-0.8411,0.2719-1.4316,0.6413-1.4316,1.4343v0.9542c0,0.7929,0.6387,1.1945,1.4316,1.4367l3.4268,1.0018
					c0.793,0,1.4317-0.6413,1.4317-1.4342V234.5783z"/>
			</g>
		</g>
		<g>
			<g>
				<path class="st16" d="M245.9746,218.7197h2.0658v8.1021c-0.1484,3.1692-2.0375,9.2003-8.0976,9.7247l-0.178-2.055
					c5.7722-0.4973,6.2001-7.4242,6.2143-7.7178L245.9746,218.7197z"/>
			</g>
			<g>
				<path class="st17" d="M234.7862,234.5783c0-0.7904,0.6445-1.4342,1.4374-1.4342l3.4217,0.5596
					c0.8405,0.2719,1.4368,0.6413,1.4368,1.4343v0.9542c0,0.7929-0.6439,1.1945-1.4368,1.4367l-3.4217,1.0018
					c-0.7929,0-1.4374-0.6413-1.4374-1.4342V234.5783z"/>
			</g>
		</g>
	</g>
</g>
<g>
	<path class="st16" d="M287.8417,200.0898c0,4.967,4.027,8.994,8.9915,8.994c4.9689,0,8.9965-4.027,8.9965-8.994
		c0-4.9664-4.0276-8.996-8.9965-8.996C291.8687,191.0938,287.8417,195.1234,287.8417,200.0898z"/>
	<path class="st18" d="M291.6001,200.0898c0,2.8934,2.3454,5.2337,5.2331,5.2337c2.8934,0,5.2337-2.3403,5.2337-5.2337
		c0-2.8877-2.3403-5.2331-5.2337-5.2331C293.9455,194.8567,291.6001,197.2021,291.6001,200.0898z"/>
</g>
<g>
	<path class="st1" d="M244.5468,374.4806c-5.0172,4.9208-12.4086-13.6822-15.1858-16.2197
		c1.9798,4.133,10.6878,19.2231,7.2372,22.3563c-2.2155,1.6584-8.088-12.8405-9.7316-15.3201
		c0.692,2.6718,5.1328,12.735,2.2637,14.3112c-2.2779,0.6246-5.9932-9.429-7.6369-12.2884
		c-0.0238,0.8462,3.4602,10.1789,1.3462,10.0921c-2.0524,0.0624-5.4496-6.0311-6.9063-9.1835
		c-6.5786-14.2297-14.2727-29.7766-3.6524-31.5501c7.9248-1.3237,12.3367-1.8333,30.9827,11.8991
		c3.2199,2.3691-3.556,5.0268-10.9571,1.6674C231.7681,352.1913,245.1527,373.894,244.5468,374.4806z"/>
</g>
<path class="st1" d="M151.2627,260.3613c16.7575-6.5047,27.9646,3.4602,27.9646,3.4602
	c23.7737,51.469,41.6319,76.4251,41.6319,76.4251l-8.2274,9.3403c0,0-57.1783-50.4916-65.1609-79.7728
	C147.4709,269.8141,149.3022,263.8215,151.2627,260.3613z"/>
<path class="st4" d="M211.5992,138.5838c0,0,13.2253,17.5698,9.9328,29.8775l-35.2596,100.6441l33.5009,65.5862l-17.2144,29.7643
	l-55.088-81.1376c0,0-7.8239-7.2687-4.3392-20.4536l27.8636-94.2068C170.9953,168.6579,175.9257,144.3265,211.5992,138.5838z"/>
</svg>
