<?xml version="1.0" ?>
<!-- Uploaded to: SVG Repo, www.svgrepo.com, Generator: SVG Repo Mixer Tools -->
<svg width="800px" height="800px" viewBox="0 0 512 512" id="Layer_1" version="1.1" xml:space="preserve" xmlns="http://www.w3.org/2000/svg" xmlns:xlink="http://www.w3.org/1999/xlink">
<style type="text/css">
	.st0{fill:#D8D8D8;}
	.st1{fill:#49A8FF;}
	.st2{fill:#FDCEB6;}
	.st3{fill:#FFFFFF;}
	.st4{fill:none;stroke:#34374F;stroke-width:12;stroke-linecap:round;stroke-linejoin:round;stroke-miterlimit:10;}
	.st5{fill:#99DB3B;}
	.st6{fill:#474C68;}
	.st7{fill:none;stroke:#34374F;stroke-width:11;stroke-linecap:round;stroke-linejoin:round;stroke-miterlimit:10;}
	.st8{fill:#34374F;}
	.st9{fill:none;stroke:#34374F;stroke-width:13;stroke-linecap:round;stroke-linejoin:round;stroke-miterlimit:10;}
	.st10{fill:none;stroke:#FFFFFF;stroke-width:12;stroke-linecap:round;stroke-linejoin:round;stroke-miterlimit:10;}
	.st11{fill:none;stroke:#34374F;stroke-width:12;stroke-linecap:round;stroke-linejoin:round;}
	.st12{fill:none;stroke:#34374F;stroke-width:12;stroke-linecap:round;stroke-linejoin:round;stroke-dasharray:27.2333,27.2333;}
</style>
<g>
<path class="st1" d="M406.78,235.05c-11.44,0-20.72-9.27-20.72-20.72c0-11.04,11.7-22.21,19.53-31.04h0.95   c7.83,8.83,19.53,20,19.53,31.04c0,11.44-9.27,20.72-20.72,20.72"/>
<g>
<g>
<path class="st0" d="M337.61,122.88l-1.17-0.57c-8.78-4.28-14.34-13.19-14.34-22.96h-6.62h-0.57V83.19h-17.64V57.14H269.7v26.05     h-17.64v16.16h-7.19c0,9.76-5.57,18.68-14.34,22.96l-1.17,0.57c-16.15,7.88-26.4,24.29-26.4,42.26v185.42l124.15,43.83l36.9-52.1     V165.14C364.01,147.16,353.77,130.76,337.61,122.88z"/>
<path class="st0" d="M395.48,74.51l-21.9-32.16c-2.51-3.69-6.91-5.93-11.63-5.93H239.25v20.06h117.4l10.29,11.89     c3.79,4.37,9.52,6.92,15.58,6.92h12.49C395.44,75.29,395.71,74.85,395.48,74.51z"/>
</g>
</g>
<path class="st0" d="M314.8,400.41l107.84-31.35c8.31-2.48,17.12,1.87,20.2,9.98l0,0c1.66,4.37,0.05,9.31-3.87,11.86l-82.62,53.58   c-13.12,8.51-28.3,13.28-43.93,13.81l-101.24,17.29l-65.34-14.89L132.3,353.27"/>
<path class="st0" d="M126.79,468.72h-41.7V336.01l48.36,12.76l0.4,112.9C133.84,465.56,130.69,468.72,126.79,468.72z"/>
<g>
<path class="st1" d="M184.63,354.93V169.5c0-17.97,10.25-34.38,26.4-42.26l1.17-0.57c8.78-4.28,14.34-13.19,14.34-22.96h70.62    h6.62c0,9.76,5.57,18.68,14.34,22.96l1.17,0.57c16.15,7.88,26.4,24.29,26.4,42.26v177.15l-36.9,52.1L184.63,354.93z"/>
</g>
<g>
<path class="st3" d="M224.49,135.1l1.17-0.57c7.27-3.55,12.34-19.8,13.86-30.82h-12.98c0,9.76-5.57,18.68-14.34,22.96l-1.17,0.57    c-16.15,7.88-26.4,24.29-26.4,42.26v185.42l13.46,4.75V177.36C198.09,159.39,208.34,142.98,224.49,135.1z"/>
</g>
<polygon class="st2" points="117.46,341.92 172.04,366.18 210.36,340.87 223.59,339.21 245.93,345 293.98,363.83 302.17,371.47    307.95,385.53 411.34,356.58 422.92,361.54 428.01,367.69 427.05,377.26 393.97,400.41 329.46,440.11 297.58,446.94 192.99,464.92    179.76,463.27 111.94,449.21  "/>
<path class="st3" d="M393.97,386.08l-50.24,30.24c-11.82,7.11-24.78,12.11-38.32,14.76l-7.83,1.53l-104.59,17.98l-13.23-1.65   l-67.09-13.91l-0.73,14.18l67.82,14.06l13.23,1.65l104.59-17.98l31.87-6.83l64.51-39.7l33.08-23.16l0.96-9.56l-2.85-3.44   L393.97,386.08z"/>
<path class="st3" d="M208.98,387.36c0,0,1.1-7.72,17.64-9.92l71.68,6.07l-6.62,11.58L208.98,387.36z"/>
<path class="st0" d="M314.34,385.16l94.63-75.49c6.68-5.31,16.26-4.83,22.37,1.11l0,0c2.56,2.49,2.72,6.54,0.37,9.22l-38.03,43.36"/>
<path class="st2" d="M294.26,388.65l94.63-75.49c6.68-5.31,16.26-4.83,22.37,1.11l0,0c2.56,2.49,2.72,6.54,0.37,9.22l-38.03,43.36"/>
<polygon class="st3" points="350.13,375.23 408.58,307.97 415.2,315.13 415.2,321.75 376.6,369.17  "/>
<g>
<path class="st4" d="M299.96,389.06l107.84-31.35c8.31-2.48,17.12,1.87,20.2,9.98l0,0c1.66,4.37,0.05,9.31-3.87,11.86    l-82.62,53.58c-13.12,8.51-28.3,13.28-43.93,13.81l-110.66,18.49l-68.92-15.44l-0.55-108.07"/>
<path class="st4" d="M213.95,388.18l73.23,6.15c8.33,0.7,15.71-5.69,16.54-14.32l0,0c0.68-7.09-3.32-13.73-9.75-16.18    l-58.56-22.32c-9.8-3.73-20.68-3.18-30.16,1.52l-33.21,23.15l-54.59-24.26"/>
<path class="st4" d="M304.38,380.39l84.51-67.23c6.68-5.31,16.26-4.83,22.37,1.11l0,0c2.56,2.49,2.72,6.54,0.37,9.22l-38.03,43.36    "/>
</g>
<rect class="st5" height="82.84" width="159.62" x="185.35" y="209.78"/>
<rect class="st3" height="82.84" width="10.33" x="185.35" y="209.78"/>
<g>
<path class="st1" d="M419.93,167.23c-4.39,0-7.95-4.22-7.95-9.44c0-5.03,4.49-10.12,7.49-14.14h0.36    c3.01,4.02,7.49,9.11,7.49,14.14c0,5.21-3.56,9.44-7.95,9.44"/>
<path class="st1" d="M356.52,221.82c-4.39,0-7.95-4.22-7.95-9.44c0-5.03,4.49-10.12,7.49-14.14h0.36    c3.01,4.02,7.49,9.11,7.49,14.14c0,5.21-3.56,9.44-7.95,9.44"/>
<path class="st1" d="M432.61,286.88c-4.39,0-7.95-4.22-7.95-9.44c0-5.03,4.49-10.12,7.49-14.14h0.36    c3.01,4.02,7.49,9.11,7.49,14.14c0,5.21-3.56,9.44-7.95,9.44"/>
</g>
<rect class="st3" height="132.71" width="48.75" x="68.5" y="330.77"/>
<rect class="st1" height="132.71" width="14.78" x="68.5" y="330.77"/>
<rect class="st4" height="132.71" width="48.75" x="68.5" y="330.77"/>
<g>
<path class="st4" d="M345.68,346.65V169.5c0-17.97-10.25-34.38-26.4-42.26l-1.17-0.57c-8.78-4.28-14.34-13.19-14.34-22.96h-6.62    h-70.62c0,9.76-5.57,18.68-14.34,22.96l-1.17,0.57c-16.15,7.88-26.4,24.29-26.4,42.26v185.42"/>
</g>
<rect class="st3" height="16.2" width="62.86" x="233.73" y="87.56"/>
<rect class="st4" height="16.2" width="62.86" x="233.73" y="87.56"/>
<rect class="st1" height="26.11" transform="matrix(-1 -1.224647e-16 1.224647e-16 -1 530.3089 149.1148)" width="27.57" x="251.37" y="61.5"/>
<rect class="st4" height="26.11" transform="matrix(-1 -1.224647e-16 1.224647e-16 -1 530.3089 149.1148)" width="27.57" x="251.37" y="61.5"/>
<line class="st4" x1="344.97" x2="185.35" y1="209.78" y2="209.78"/>
<line class="st4" x1="344.97" x2="185.35" y1="292.62" y2="292.62"/>
<polygon class="st3" points="242.23,240.74 258.81,240.74 258.81,223.03 278.59,223.03 278.59,240.74 295.17,240.74 295.17,261.87    278.59,261.87 278.59,279.57 258.81,279.57 258.81,261.87 242.23,261.87  "/>
<line class="st4" x1="311.06" x2="271.37" y1="122.52" y2="122.52"/>
<path class="st3" d="M338.31,60.84h-117.4V40.78h122.71c4.72,0,9.11,2.24,11.63,5.93l21.9,32.16c0.23,0.34-0.03,0.78-0.47,0.78   h-12.49c-6.06,0-11.8-2.55-15.58-6.92L338.31,60.84"/>
<path class="st4" d="M338.31,60.84h-117.4V40.78h122.71c4.72,0,9.11,2.24,11.63,5.93l21.9,32.16c0.23,0.34-0.03,0.78-0.47,0.78   h-12.49c-6.06,0-11.8-2.55-15.58-6.92L338.31,60.84"/>
<g>
<path class="st0" d="M376.43,174.33c-12.93,0-23.41-10.48-23.41-23.41c0-12.48,13.22-25.1,22.07-35.09h1.07    c8.85,9.98,22.07,22.61,22.07,35.09c0,12.93-10.48,23.41-23.41,23.41"/>
<g>
<path class="st1" d="M365.08,169.09c-12.93,0-23.41-10.48-23.41-23.41c0-12.48,13.22-25.1,22.07-35.09h1.07     c8.85,9.98,22.07,22.61,22.07,35.09c0,12.93-10.48,23.41-23.41,23.41"/>
<g>
<path class="st3" d="M363.46,169.09h1.62c-0.27,0-0.54-0.01-0.81-0.02C364,169.08,363.73,169.09,363.46,169.09z"/>
<path class="st3" d="M354.9,145.68c0-9.82,8.19-19.73,15.99-28.37c-2.11-2.34-4.2-4.59-6.08-6.71h-1.07      c-8.85,9.98-22.07,22.61-22.07,35.09c0,12.66,10.05,22.97,22.61,23.39c2.31-0.08,4.53-0.49,6.62-1.19      C361.6,164.78,354.9,156.01,354.9,145.68z"/>
</g>
<path class="st4" d="M365.08,169.09c-12.93,0-23.41-10.48-23.41-23.41c0-12.48,13.22-25.1,22.07-35.09h1.07     c8.85,9.98,22.07,22.61,22.07,35.09c0,12.93-10.48,23.41-23.41,23.41"/>
</g>
</g>
<g>
<path class="st0" d="M416.82,239.68c-11.44,0-20.72-9.27-20.72-20.72c0-11.04,11.7-22.21,19.53-31.04h0.95    c7.83,8.83,19.53,20,19.53,31.04c0,11.44-9.27,20.72-20.72,20.72"/>
<g>
<path class="st1" d="M406.78,235.05c-11.44,0-20.72-9.27-20.72-20.72c0-11.04,11.7-22.21,19.53-31.04h0.95     c7.83,8.83,19.53,20,19.53,31.04c0,11.44-9.27,20.72-20.72,20.72"/>
<g>
<path class="st3" d="M405.35,235.05h1.43c-0.24,0-0.48-0.01-0.72-0.02C405.82,235.04,405.59,235.05,405.35,235.05z"/>
<path class="st3" d="M397.77,214.33c0-8.69,7.24-17.46,14.15-25.1c-1.87-2.07-3.71-4.06-5.38-5.94h-0.95      c-7.83,8.83-19.53,20-19.53,31.04c0,11.2,8.89,20.32,20,20.7c2.04-0.07,4-0.43,5.85-1.05      C403.7,231.23,397.77,223.48,397.77,214.33z"/>
</g>
<path class="st4" d="M406.78,235.05c-11.44,0-20.72-9.27-20.72-20.72c0-11.04,11.7-22.21,19.53-31.04h0.95     c7.83,8.83,19.53,20,19.53,31.04c0,11.44-9.27,20.72-20.72,20.72"/>
</g>
</g>
<g>
<path class="st0" d="M371.33,294.54c-10.23,0-18.52-8.29-18.52-18.52c0-9.87,10.46-19.86,17.46-27.75h0.85    c7,7.9,17.46,17.88,17.46,27.75c0,10.23-8.29,18.52-18.52,18.52"/>
<g>
<path class="st1" d="M362.35,290.39c-10.23,0-18.52-8.29-18.52-18.52c0-9.87,10.46-19.85,17.46-27.75h0.85     c7,7.9,17.46,17.88,17.46,27.75c0,10.23-8.29,18.52-18.52,18.52"/>
<g>
<path class="st3" d="M361.07,290.39h1.28c-0.21,0-0.43-0.01-0.64-0.02C361.5,290.38,361.29,290.39,361.07,290.39z"/>
<path class="st3" d="M354.3,271.87c0-7.77,6.48-15.61,12.65-22.44c-1.67-1.85-3.32-3.63-4.81-5.31h-0.85      c-7,7.9-17.46,17.88-17.46,27.75c0,10.01,7.95,18.17,17.88,18.5c1.82-0.06,3.58-0.39,5.23-0.94      C359.6,286.98,354.3,280.05,354.3,271.87z"/>
</g>
<path class="st4" d="M362.35,290.39c-10.23,0-18.52-8.29-18.52-18.52c0-9.87,10.46-19.85,17.46-27.75h0.85     c7,7.9,17.46,17.88,17.46,27.75c0,10.23-8.29,18.52-18.52,18.52"/>
</g>
</g>
</g>
</svg>