<?xml version="1.0" encoding="utf-8"?>
<!-- Generator: Adobe Illustrator 24.0.2, SVG Export Plug-In . SVG Version: 6.00 Build 0)  -->
<svg version="1.1" id="Layer_1" xmlns="http://www.w3.org/2000/svg" xmlns:xlink="http://www.w3.org/1999/xlink" x="0px" y="0px"
	 viewBox="0 0 512 512" style="enable-background:new 0 0 512 512;" xml:space="preserve">
<style type="text/css">
	.st0{fill:#CDDFF9;}
	.st1{fill:#578FFF;}
	.st2{fill:#DC4D61;}
	.st3{fill:#C43552;}
	.st4{fill:#FFFFFF;}
	.st5{fill:#AAC8F9;}
</style>
<g>
	<path class="st0" d="M306.8114,363.375c-0.1245,26.2904-21.5728,47.5153-47.888,47.3673l0,0
		c-26.3139-0.1491-47.5153-21.5713-47.3673-47.8864l1.6309-307.5093c0.0979-26.2901,21.5713-47.4915,47.8868-47.3673l0,0
		c26.2901,0.1479,47.4915,21.5716,47.3423,47.8868L306.8114,363.375z"/>
</g>
<g>
	<path class="st0" d="M371.8463,392.136c-0.3468,62.2935-51.0991,112.5264-113.4157,112.1814
		c-62.2938-0.3221-112.5282-51.0991-112.2061-113.3926c0.3203-62.292,51.0988-112.5514,113.4158-112.2046
		C321.9086,279.042,372.1665,329.8193,371.8463,392.136z"/>
</g>
<g>
	<path class="st1" d="M281.9283,360.7303c-0.0979,12.5519-10.3037,22.6834-22.8557,22.6086l0,0
		c-12.552-0.0732-22.6831-10.3022-22.6102-22.8557l1.5815-299.8237c0.0744-12.5273,10.3053-22.6584,22.8573-22.6102l0,0
		c12.552,0.0747,22.6581,10.3053,22.5836,22.8576L281.9283,360.7303z"/>
</g>
<g>
	<path class="st2" d="M337.9932,391.9387c-0.2208,43.6359-35.753,78.7977-79.3919,78.5507
		c-43.5859-0.2224-78.7712-35.778-78.5257-79.3669c0.2223-43.6359,35.7545-78.798,79.3669-78.5757
		C303.0549,312.7941,338.2155,348.351,337.9932,391.9387z"/>
</g>
<g>
	<path class="st2" d="M337.9932,391.9387c-0.2208,43.6359-35.753,78.7977-79.3919,78.5507
		c-43.5859-0.2224-78.7712-35.778-78.5257-79.3669c0.2223-43.6359,35.7545-78.798,79.3669-78.5757
		C303.0549,312.7941,338.2155,348.351,337.9932,391.9387z"/>
</g>
<g>
	<path class="st2" d="M237.4265,176.6453l-0.9641,183.838c-0.0729,12.5535,10.0582,22.7825,22.6102,22.8557
		c12.552,0.0747,22.7578-10.0567,22.8557-22.6086l0.9641-183.8377L237.4265,176.6453z"/>
</g>
<g>
	<path class="st3" d="M237.4265,176.6453l-0.7418,139.2383c-32.5406,9.5867-56.4349,39.5341-56.6091,75.2389
		c-0.2455,43.1427,34.198,78.3298,77.1684,79.2921l0.4682-87.1488l0.3715-70.6443l0.7168-135.8518L237.4265,176.6453z"/>
</g>
<g>
	<g>
		<g>
			<polygon class="st4" points="289.7862,188.7775 272.9833,188.6796 272.9833,184.8002 289.8359,184.8982 			"/>
		</g>
	</g>
	<g>
		<g>
			
				<rect x="279.3713" y="193.794" transform="matrix(0.0059 -1 1 0.0059 77.4667 482.3168)" class="st4" width="3.9034" height="16.8024"/>
		</g>
	</g>
	<g>
		<g>
			<polygon class="st4" points="289.6385,219.5909 272.8342,219.4912 272.8342,215.6121 289.662,215.7115 			"/>
		</g>
	</g>
	<g>
		<g>
			<polygon class="st4" points="289.5638,235.0084 272.7363,234.9105 272.761,231.0311 289.5638,231.1306 			"/>
		</g>
	</g>
	<g>
		<g>
			<polygon class="st4" points="289.4894,250.429 272.6631,250.328 272.6631,246.4502 289.5141,246.5249 			"/>
		</g>
	</g>
	<g>
		<g>
			<polygon class="st4" points="289.3896,265.8215 272.5636,265.7471 272.6133,261.8692 289.4147,261.9424 			"/>
		</g>
	</g>
	<g>
		<g>
			<polygon class="st4" points="289.3168,281.2405 272.4889,281.1661 272.5139,277.262 289.3399,277.3614 			"/>
		</g>
	</g>
	<g>
		<g>
			<polygon class="st4" points="289.242,296.6349 272.4145,296.5354 272.4392,292.681 289.242,292.7555 			"/>
		</g>
	</g>
	<g>
		<g>
			<polygon class="st4" points="289.1426,312.0524 272.3413,311.9792 272.3413,308.0985 289.1691,308.173 			"/>
		</g>
	</g>
</g>
<g>
	<g>
		<path class="st5" d="M344.0351,276.3229c-1.3216,0-2.6554-0.1479-3.9785-0.4447c-6.8071-1.4817-11.5509-6.4494-12.6749-13.2937
			c-0.2489-1.5565,0.8022-3.0382,2.3727-3.2868c1.5811-0.2458,3.0257,0.8162,3.2852,2.3492
			c0.7293,4.5214,3.7425,7.659,8.2404,8.6479c4.3738,0.9391,10.4532-0.4197,14.0355-5.7076
			c2.5203-3.8062,2.3958-9.7843-0.3221-13.6155c-2.433-3.4594-6.3994-4.6209-11.5506-3.3349
			c-1.3978,0.345-2.8546-0.3965-3.374-1.7306c-0.5176-1.3588,0.05-2.8921,1.3231-3.5573c5.0534-2.6947,9.1673-5.7094,12.1558-8.3276
			c-4.6568-0.1479-9.4128-0.1244-14.0337-0.1244c-2.6572,0.0265-5.2757,0.0497-7.8707,0.0265
			c-1.5812-0.0265-2.8531-1.3109-2.8405-2.8921c0.0125-1.5812,1.2966-2.8421,2.8655-2.8421c0,0,0.0125,0,0.025,0
			c2.5825,0,5.1775,0,7.7957,0c6.7324-0.05,13.8488-0.0732,20.7054,0.4197c1.0511,0.0747,1.9777,0.7415,2.4099,1.7056
			c0.4322,0.9641,0.2846,2.1006-0.359,2.9153c-1.9017,2.4224-5.2367,5.6829-9.8328,8.9947
			c2.9153,0.9638,5.4108,2.7923,7.2643,5.4355c4.114,5.832,4.2741,14.2826,0.3947,20.1131
			C356.4394,273.1602,350.3228,276.3229,344.0351,276.3229z"/>
	</g>
	<g>
		<path class="st5" d="M396.7525,237.3064c-0.7168,0-1.3838-0.0979-1.9902-0.3203c-2.8902-0.9888-4.644-3.9788-4.2615-7.2891
			c0.3468-3.1141,2.5575-5.4371,5.4977-5.7573c0.0994,0,0.7418-0.025,0.7418-0.025c3.2977,0,5.9922,1.9017,6.7943,4.7188
			c0.7915,2.9668-0.4197,5.9068-3.1361,7.6856C399.3851,236.9611,398.0757,237.3064,396.7525,237.3064z"/>
	</g>
	<g>
		<g>
			<path class="st5" d="M377.7015,253.2198L377.7015,253.2198c-1.3341,0-2.5453-0.1726-3.607-0.5692
				c-5.2507-1.8282-8.438-7.4614-7.7213-13.6634c0.6655-5.8324,4.5836-9.982,9.982-10.5758
				c6.5238-0.6921,12.5535,2.965,14.1581,8.6244c1.519,5.5103-0.8025,11.0205-6.0779,14.4052
				C382.6691,252.5527,380.1599,253.2198,377.7015,253.2198z M377.9489,234.0708c-0.3218,0-0.6545,0-0.9767,0.0482
				c-4.0145,0.4212-4.7794,4.3488-4.9161,5.535c-0.3328,2.8921,0.7665,6.4991,3.9523,7.6108
				c1.2981,0.4697,4.0908,0.1229,5.3501-0.642c1.149-0.7665,4.8804-3.5591,3.6461-8.0555
				C384.1136,235.4547,380.8284,234.0708,377.9489,234.0708z"/>
		</g>
		<g>
			<path class="st5" d="M377.2321,276.4955L377.2321,276.4955c-1.5315,0-2.9775-0.2224-4.1887-0.6423
				c-6.1526-2.175-9.859-8.7473-9.0178-16.0364c0.7912-6.8194,5.3623-11.6626,11.6375-12.3296
				c7.6715-0.8644,14.7148,3.4594,16.5558,10.0582c1.7785,6.4478-0.9641,12.9204-7.1414,16.8742
				C383.0626,275.7055,380.1364,276.4955,377.2321,276.4955z M377.5288,253.1204c-0.4212,0-0.8409,0.0247-1.2484,0.0512
				c-4.2619,0.4697-6.1898,4.0752-6.5598,7.3138c-0.4322,3.7549,1.0123,8.4737,5.2257,9.957
				c0.5941,0.1976,1.3963,0.3221,2.2857,0.3221l0,0c1.791,0,3.6582-0.4697,4.7575-1.1615c4.052-2.595,5.8058-6.5241,4.7065-10.5276
				C385.5597,254.9504,381.2713,253.1204,377.5288,253.1204z"/>
		</g>
	</g>
</g>
</svg>
