<?xml version="1.0" ?>
<!-- Uploaded to: SVG Repo, www.svgrepo.com, Generator: SVG Repo Mixer Tools -->
<svg width="800px" height="800px" viewBox="0 0 512 512" id="Layer_1" version="1.1" xml:space="preserve" xmlns="http://www.w3.org/2000/svg" xmlns:xlink="http://www.w3.org/1999/xlink">
<style type="text/css">
	.st0{fill:#D8D8D8;}
	.st1{fill:#49A8FF;}
	.st2{fill:#FDCEB6;}
	.st3{fill:#FFFFFF;}
	.st4{fill:none;stroke:#34374F;stroke-width:12;stroke-linecap:round;stroke-linejoin:round;stroke-miterlimit:10;}
	.st5{fill:#99DB3B;}
	.st6{fill:#474C68;}
	.st7{fill:none;stroke:#34374F;stroke-width:11;stroke-linecap:round;stroke-linejoin:round;stroke-miterlimit:10;}
	.st8{fill:#34374F;}
	.st9{fill:none;stroke:#34374F;stroke-width:13;stroke-linecap:round;stroke-linejoin:round;stroke-miterlimit:10;}
	.st10{fill:none;stroke:#FFFFFF;stroke-width:12;stroke-linecap:round;stroke-linejoin:round;stroke-miterlimit:10;}
	.st11{fill:none;stroke:#34374F;stroke-width:12;stroke-linecap:round;stroke-linejoin:round;}
	.st12{fill:none;stroke:#34374F;stroke-width:12;stroke-linecap:round;stroke-linejoin:round;stroke-dasharray:27.2333,27.2333;}
</style>
<g>
<ellipse class="st0" cx="326.83" cy="329.4" rx="80.46" ry="80.46" transform="matrix(0.7071 -0.7071 0.7071 0.7071 -137.1929 327.5842)"/>
<path class="st0" d="M276.46,203.61l-45.4,67.17c-7.55,9.02-19.41,14.32-32,14.32l-47.35,2.89l15.59-77.05l33.02-17.43l77.1,10.09"/>
<path class="st0" d="M225.4,45.02l-1.22,28.74l100.29,21.4c0,0,6.11-28.74-8.56-33.02c-14.68-4.28-79.49-18.35-79.49-18.35   L225.4,45.02z"/>
<path class="st0" d="M336.83,111.18L142.54,70.05l-70.4,135.48l10.43,239.64c0,14.6,11.41,26.43,25.49,26.43h35.51   c14.15,0,28.3-0.79,42.36-2.36c7.53-0.84,13.17-7.28,13.01-14.86c-0.25-11.93-3.72-23.58-10.04-33.7l-4.29-6.86   c-3.29-5.27-5.06-11.35-5.1-17.56l-0.63-92.22c0.72-10.33,5.7-37.55,13.68-43.78l24.47-19.12c18.68-14.6,25.2-22.48,48.59-22.45   l84.05-5.08c7.82,0.01,14.16-6.56,14.16-14.66V144.8C363.83,128.31,352.47,114.16,336.83,111.18z"/>
<path class="st3" d="M318.43,96.65L124.14,55.53l-70.4,135.48l10.43,239.64c0,14.6,11.41,26.43,25.49,26.43h35.51   c14.15,0,28.3-0.79,42.36-2.36c7.53-0.84,13.17-7.28,13.01-14.86c-0.25-11.93-3.72-23.58-10.04-33.7l-4.29-6.86   c-3.29-5.27-5.06-11.35-5.1-17.56l-0.63-92.22c0.72-10.33,5.7-37.55,13.68-43.78l24.47-19.12c18.68-14.6,25.2-22.48,48.59-22.45   l84.05-5.08c7.82,0.01,14.16-6.56,14.16-14.66v-54.16C345.43,113.78,334.08,99.64,318.43,96.65z"/>
<polyline class="st5" points="183.06,68.07 185.72,40.4 206.5,40.4 203.41,72.67  "/>
<path class="st1" d="M220.08,257.59c10.16-17.6,28.26-30.98,32.03-51.25c-5.57-3.88-12.98-4.35-19.56-2.66   c-6.57,1.7-12.46,5.34-18.04,9.2c-9.73,6.74-18.86,14.33-27.27,22.64c-6.57,6.49-20.56,17.94-21.95,27.49   C161.72,287.54,215.44,265.63,220.08,257.59z"/>
<path class="st5" d="M321.11,199.64c7.18,2.81,15.57-1.65,19.73-8.14c4.16-6.49,5.11-14.47,5.86-22.15   c1.28-13.15,2.28-26.57-0.63-39.45c-1.78-7.88-6.21-20.78-13.62-25.29c-12.43-7.56-11.1,7.8-11.12,16.56   C321.27,147.33,321.18,173.49,321.11,199.64z"/>
<path class="st5" d="M182.85,435.67l-11.92-26.6l-13.83-14.15l-24.05,1.67l5.45,7.9c4.99,7.23,4,17.06-2.31,22.86   c-3.18,2.93-7.32,4.57-11.66,4.63l-16.99,0.23c-11.83,0-21.49-9.26-21.99-21.08L73.7,192.6l-18.35,0.92v47.7l6.42,145.84   c0.11,1.88,4.01,46.34,5.5,56.87c0.35,2.45,8.42,10.99,17.43,12.84c4.06-0.1,26.91,0,43.11,0c10.9,0,14.95-1.29,20.18-0.92   c1,0.07,10.06,0,11.01,0c9.41,0,14.44-1.37,17.43-3.67c0.08-0.06,3.59-7.28,3.67-7.34C180.32,442.13,183.46,440.93,182.85,435.67z"/>
<path class="st1" d="M207,43.09l-1.22,28.74l100.29,21.4c0,0,6.11-28.74-8.56-33.02c-14.68-4.28-79.49-18.35-79.49-18.35L207,43.09   z"/>
<g>
<ellipse class="st3" cx="301.66" cy="325.53" rx="80.46" ry="80.46" transform="matrix(0.7071 -0.7071 0.7071 0.7071 -141.8276 308.6496)"/>
<ellipse class="st3" cx="301.66" cy="325.53" rx="80.46" ry="80.46" transform="matrix(0.7071 -0.7071 0.7071 0.7071 -141.8276 308.6496)"/>
</g>
<path class="st4" d="M132.11,187.75c-3.31,17.9-16.96,29.1-35.08,29.1H56.92"/>
<polyline class="st4" points="183.06,68.07 185.72,40.4 206.5,40.4 204.4,71.67  "/>
<path class="st4" d="M253.58,205L220,257.02c-7.55,9.02-19.41,14.32-32,14.32l-24.51,1.8"/>
<path class="st4" d="M206.5,40.4l88,19.22c6.79,1.48,11.82,7.22,12.39,14.15l1.66,19.95"/>
<path class="st5" d="M174.82,115.35l-1.93,29.57c-0.53,8.09,5.61,15.07,13.7,15.6l92.2,5.95c8.46,0.55,15.62-6.17,15.62-14.64   v-19.47c0-7.11-5.1-13.2-12.1-14.45l-90.27-16.05C183.41,100.33,175.39,106.62,174.82,115.35z"/>
<path class="st4" d="M174.82,115.35l-1.93,29.57c-0.53,8.09,5.61,15.07,13.7,15.6l92.2,5.95c8.46,0.55,15.62-6.17,15.62-14.64   v-19.47c0-7.11-5.1-13.2-12.1-14.45l-90.27-16.05C183.41,100.33,175.39,106.62,174.82,115.35z"/>
<path class="st4" d="M318.43,96.65L124.14,55.53l-70.4,135.48l10.43,239.64c0,14.6,11.41,26.43,25.49,26.43h35.51   c14.15,0,28.3-0.79,42.36-2.36c7.53-0.84,13.17-7.28,13.01-14.86c-0.25-11.93-3.72-23.58-10.04-33.7l-4.29-6.86   c-3.29-5.27-5.06-11.35-5.1-17.56l-0.63-92.22c0.72-10.33,5.7-37.55,13.68-43.78l24.47-19.12c18.68-14.6,25.2-22.48,48.59-22.45   l84.05-5.08c7.82,0.01,14.16-6.56,14.16-14.66v-54.16C345.43,113.78,334.08,99.64,318.43,96.65z"/>
<line class="st4" x1="321.07" x2="321.07" y1="169.44" y2="198.41"/>
<line class="st4" x1="321.07" x2="321.07" y1="101.62" y2="139.15"/>
<g>
<line class="st4" x1="411.23" x2="447.86" y1="106.11" y2="94.08"/>
<line class="st4" x1="365.68" x2="388.86" y1="124.34" y2="115.81"/>
<line class="st4" x1="398.11" x2="454.06" y1="148.7" y2="143.76"/>
<line class="st4" x1="370.66" x2="378.69" y1="151.04" y2="150.34"/>
<line class="st4" x1="439.08" x2="458.26" y1="193.12" y2="197.6"/>
<line class="st4" x1="367.23" x2="418.99" y1="176.33" y2="188.42"/>
</g>
<g>
<path class="st1" d="M87.46,191.01H53.92l13-135.48h57.23l-10.66,111.04C112.16,180.44,100.9,191.01,87.46,191.01z"/>
<line class="st10" x1="66.58" x2="95.55" y1="75.94" y2="75.94"/>
<line class="st10" x1="58.68" x2="75.14" y1="162.2" y2="162.2"/>
<path class="st4" d="M87.46,191.01H53.92l13-135.48h57.23l-10.66,111.04C112.16,180.44,100.9,191.01,87.46,191.01z"/>
</g>
<g>
<ellipse class="st3" cx="301.66" cy="325.53" rx="80.46" ry="80.46" transform="matrix(0.7071 -0.7071 0.7071 0.7071 -141.8276 308.6496)"/>
<g>
<path class="st5" d="M244.02,325.13c0-39.59,29.68-72.22,68-76.91c-3.12-0.38-6.29-0.6-9.51-0.6c-42.81,0-77.51,34.7-77.51,77.51     c0,42.81,34.7,77.51,77.51,77.51c3.22,0,6.39-0.22,9.51-0.6C273.7,397.35,244.02,364.72,244.02,325.13z"/>
</g>
<ellipse class="st4" cx="301.66" cy="325.53" rx="80.46" ry="80.46" transform="matrix(0.7071 -0.7071 0.7071 0.7071 -141.8276 308.6496)"/>
</g>
<g>
<path class="st1" d="M294.62,371.64c-3.85,0-6.47-1.85-7.85-5.56l-33.34-65.46c-0.2-0.65-0.32-1.06-0.37-1.25    c-0.05-0.18-0.07-0.37-0.07-0.56c0-0.83,0.32-1.55,0.96-2.16c0.64-0.6,1.41-0.9,2.3-0.9h18.65c1.97,0,3.38,0.4,4.22,1.18    c0.84,0.79,1.36,1.55,1.55,2.29l23.71,39.74l32.67-97.78c0.2-0.74,0.72-1.51,1.55-2.29c0.84-0.79,2.24-1.18,4.22-1.18h18.66    c0.89,0,1.65,0.3,2.3,0.9c0.64,0.6,0.96,1.32,0.96,2.16c0,0.19-0.03,0.37-0.07,0.56c-0.05,0.19-0.17,0.6-0.37,1.25l-42.29,123.51    c-1.38,3.71-4,5.56-7.85,5.56H294.62z"/>
</g>
<g>
<path class="st4" d="M294.62,371.64c-3.85,0-6.47-1.85-7.85-5.56l-33.34-65.46c-0.2-0.65-0.32-1.06-0.37-1.25    c-0.05-0.18-0.07-0.37-0.07-0.56c0-0.83,0.32-1.55,0.96-2.16c0.64-0.6,1.41-0.9,2.3-0.9h18.65c1.97,0,3.38,0.4,4.22,1.18    c0.84,0.79,1.36,1.55,1.55,2.29l23.71,39.74l32.67-97.78c0.2-0.74,0.72-1.51,1.55-2.29c0.84-0.79,2.24-1.18,4.22-1.18h18.66    c0.89,0,1.65,0.3,2.3,0.9c0.64,0.6,0.96,1.32,0.96,2.16c0,0.19-0.03,0.37-0.07,0.56c-0.05,0.19-0.17,0.6-0.37,1.25l-42.29,123.51    c-1.38,3.71-4,5.56-7.85,5.56H294.62z"/>
</g>
<line class="st4" x1="175.98" x2="215.12" y1="129.12" y2="134.01"/>
<line class="st4" x1="160.09" x2="118.95" y1="389.62" y2="389.81"/>
<ellipse class="st1" cx="153.89" cy="112.89" rx="7.34" ry="6.33" transform="matrix(0.7329 -0.6804 0.6804 0.7329 -35.6971 134.857)"/>
<ellipse class="st1" cx="152.36" cy="137.35" rx="7.34" ry="6.33" transform="matrix(0.7329 -0.6803 0.6803 0.7329 -52.747 140.3457)"/>
</g>
</svg>